<?xml version="1.0" encoding="UTF-8" standalone="no"?>
<!-- Created with Inkscape (http://www.inkscape.org/) -->

<svg
   xmlns:osb="http://www.openswatchbook.org/uri/2009/osb"
   xmlns:dc="http://purl.org/dc/elements/1.1/"
   xmlns:cc="http://creativecommons.org/ns#"
   xmlns:rdf="http://www.w3.org/1999/02/22-rdf-syntax-ns#"
   xmlns:svg="http://www.w3.org/2000/svg"
   xmlns="http://www.w3.org/2000/svg"
   xmlns:xlink="http://www.w3.org/1999/xlink"
   xmlns:sodipodi="http://sodipodi.sourceforge.net/DTD/sodipodi-0.dtd"
   xmlns:inkscape="http://www.inkscape.org/namespaces/inkscape"
   width="1024"
   height="500"
   viewBox="0 0 1024 500.00001"
   id="svg2"
   version="1.1"
   inkscape:version="0.91 r13725"
   sodipodi:docname="feature-image.svg"
   inkscape:export-filename="/home/dino/dev/DiceCast-android/res/art/feature-image.png"
   inkscape:export-xdpi="90"
   inkscape:export-ydpi="90">
  <defs
     id="defs4">
    <linearGradient
       id="linearGradient6634"
       osb:paint="solid">
      <stop
         style="stop-color:#740000;stop-opacity:1;"
         offset="0"
         id="stop6636" />
    </linearGradient>
    <linearGradient
       id="linearGradient6628"
       osb:paint="solid">
      <stop
         style="stop-color:#ff724c;stop-opacity:1;"
         offset="0"
         id="stop6630" />
    </linearGradient>
    <linearGradient
       id="linearGradient6607"
       osb:paint="solid">
      <stop
         style="stop-color:#000000;stop-opacity:1;"
         offset="0"
         id="stop6609" />
    </linearGradient>
    <linearGradient
       id="linearGradient6601"
       osb:paint="solid">
      <stop
         style="stop-color:#ffffff;stop-opacity:1;"
         offset="0"
         id="stop6603" />
    </linearGradient>
    <linearGradient
       id="linearGradient4967"
       osb:paint="solid">
      <stop
         style="stop-color:#1b5e20;stop-opacity:1;"
         offset="0"
         id="stop4969" />
    </linearGradient>
    <linearGradient
       id="linearGradient4961"
       osb:paint="solid">
      <stop
         style="stop-color:#2e7d32;stop-opacity:1;"
         offset="0"
         id="stop4963" />
    </linearGradient>
    <linearGradient
       inkscape:collect="always"
       xlink:href="#linearGradient4967"
       id="linearGradient4971"
       x1="0"
       y1="802.36218"
       x2="1024"
       y2="802.36218"
       gradientUnits="userSpaceOnUse" />
    <linearGradient
       inkscape:collect="always"
       xlink:href="#linearGradient6601"
       id="linearGradient6605"
       x1="151.30957"
       y1="86.142089"
       x2="872.41211"
       y2="86.142089"
       gradientUnits="userSpaceOnUse" />
    <linearGradient
       inkscape:collect="always"
       xlink:href="#linearGradient6607"
       id="linearGradient6611"
       x1="151.30957"
       y1="86.142089"
       x2="872.41211"
       y2="86.142089"
       gradientUnits="userSpaceOnUse" />
    <linearGradient
       inkscape:collect="always"
       xlink:href="#linearGradient6628"
       id="linearGradient6632"
       x1="216.12517"
       y1="251.31908"
       x2="276.24108"
       y2="251.31908"
       gradientUnits="userSpaceOnUse" />
    <linearGradient
       inkscape:collect="always"
       xlink:href="#linearGradient6634"
       id="linearGradient6638"
       x1="216.12517"
       y1="251.31908"
       x2="276.24108"
       y2="251.31908"
       gradientUnits="userSpaceOnUse" />
  </defs>
  <sodipodi:namedview
     id="base"
     pagecolor="#ffffff"
     bordercolor="#666666"
     borderopacity="1.0"
     inkscape:pageopacity="0.0"
     inkscape:pageshadow="2"
     inkscape:zoom="1.4915534"
     inkscape:cx="512"
     inkscape:cy="250"
     inkscape:document-units="px"
     inkscape:current-layer="g6618"
     showgrid="false"
     inkscape:showpageshadow="false"
     units="px"
     inkscape:snap-bbox="true"
     inkscape:bbox-paths="true"
     inkscape:bbox-nodes="true"
     inkscape:snap-page="true"
     inkscape:window-width="2558"
     inkscape:window-height="1412"
     inkscape:window-x="1920"
     inkscape:window-y="26"
     inkscape:window-maximized="0" />
  <metadata
     id="metadata7">
    <rdf:RDF>
      <cc:Work
         rdf:about="">
        <dc:format>image/svg+xml</dc:format>
        <dc:type
           rdf:resource="http://purl.org/dc/dcmitype/StillImage" />
        <dc:title></dc:title>
      </cc:Work>
    </rdf:RDF>
  </metadata>
  <g
     inkscape:label="background dark"
     inkscape:groupmode="layer"
     id="layer1"
     transform="translate(0,-552.36216)"
     style="display:inline">
    <rect
       style="fill:url(#linearGradient4971);fill-opacity:1;fill-rule:nonzero;stroke:none;stroke-width:30;stroke-linecap:butt;stroke-linejoin:round;stroke-miterlimit:4;stroke-dasharray:none;stroke-opacity:1"
       id="rect4959"
       width="1024"
       height="500"
       x="0"
       y="552.36218" />
  </g>
  <g
     style="display:none"
     transform="translate(0,-552.36216)"
     id="g6514"
     inkscape:groupmode="layer"
     inkscape:label="background light">
    <rect
       y="552.36218"
       x="0"
       height="500"
       width="1024"
       id="rect6516"
       style="fill:url(#linearGradient4961);fill-opacity:1;fill-rule:nonzero;stroke:none;stroke-width:30;stroke-linecap:butt;stroke-linejoin:round;stroke-miterlimit:4;stroke-dasharray:none;stroke-opacity:1" />
  </g>
  <g
     inkscape:groupmode="layer"
     id="layer3"
     inkscape:label="dice">
    <g
       id="layer5-3"
       inkscape:label="background"
       style="display:inline"
       transform="matrix(0.4960224,0,0,0.4960224,188.14659,193.24258)">
      <path
         style="fill:#f9f9f9;stroke:#000000;stroke-width:7;stroke-linecap:round;stroke-linejoin:round;stroke-miterlimit:4;stroke-dasharray:none;stroke-opacity:1"
         d="M 462.03125,4.59375 C 329.93152,4.9469061 197.81453,4.3767802 65.71875,4.875 33.094096,7.2379094 4.5661095,36.803662 4.875,69.75 4.2839409,97.789994 4.998784,125.85353 4.7123322,153.90624 4.8678462,266.79906 4.2436353,379.71597 5.0625,492.59375 c 2.858348,32.75686 33.530731,60.90049 66.78125,59.5625 50.40906,0.39626 100.83341,-0.0285 151.25,0.12777 89.8303,-0.0583 179.68471,0.38694 269.5,-0.34652 32.75686,-2.85835 60.90049,-33.53073 59.5625,-66.78125 0.39626,-50.40906 -0.0285,-100.83341 0.12777,-151.25 -0.0583,-89.8303 0.38694,-179.68471 -0.34652,-269.5 -2.85835,-32.756859 -33.53073,-60.9004923 -66.78125,-59.5625 -7.705,-0.2820629 -15.41573,-0.3271396 -23.125,-0.25 z"
         id="rect3148-0"
         inkscape:connector-curvature="0" />
    </g>
    <path
       inkscape:connector-curvature="0"
       id="path3923-02"
       d="m 245.45303,222.52215 c -14.34688,0.0555 -27.18082,12.26272 -27.9659,26.57354 -1.41218,14.50404 9.7298,28.58729 24.13537,30.61695 13.65342,2.46152 28.08965,-6.49194 31.99018,-19.72578 4.48035,-13.23723 -2.33354,-28.87261 -14.98325,-34.64604 -4.09986,-1.98772 -8.63985,-2.92257 -13.1764,-2.81867 z"
       style="color:#000000;display:inline;overflow:visible;visibility:visible;fill:url(#linearGradient6632);fill-opacity:1;stroke:url(#linearGradient6638);stroke-width:2.48011208;stroke-miterlimit:4;stroke-dasharray:none;stroke-opacity:1;marker:none;enable-background:accumulate" />
    <path
       inkscape:connector-curvature="0"
       id="path3923-1-8"
       d="m 325.55502,302.58971 c -14.34688,0.0555 -27.18082,12.26272 -27.96589,26.57354 -1.41219,14.50404 9.72979,28.58728 24.13535,30.61694 13.65343,2.46153 28.08966,-6.49194 31.99019,-19.72577 4.48034,-13.23723 -2.33354,-28.87261 -14.98325,-34.64605 -4.09987,-1.98771 -8.63986,-2.92257 -13.1764,-2.81866 z"
       style="color:#000000;display:inline;overflow:visible;visibility:visible;fill:#ff724c;fill-opacity:1;stroke:#740000;stroke-width:2.48011208;stroke-miterlimit:4;stroke-dasharray:none;stroke-opacity:1;marker:none;enable-background:accumulate" />
    <path
       inkscape:connector-curvature="0"
       id="path3923-0-3-2"
       d="m 405.29814,382.93916 c -14.34688,0.0555 -27.18082,12.26272 -27.96589,26.57354 -1.41219,14.50404 9.7298,28.58729 24.13536,30.61694 13.65342,2.46153 28.08965,-6.49193 31.99019,-19.72577 4.48034,-13.23724 -2.33355,-28.87261 -14.98325,-34.64604 -4.09987,-1.98771 -8.63986,-2.92257 -13.17641,-2.81867 z"
       style="color:#000000;display:inline;overflow:visible;visibility:visible;fill:#ff724c;fill-opacity:1;stroke:#740000;stroke-width:2.48011208;stroke-miterlimit:4;stroke-dasharray:none;stroke-opacity:1;marker:none;enable-background:accumulate" />
    <g
       style="display:inline"
       inkscape:label="background"
       id="g6520"
       transform="matrix(0.4960224,0,0,0.4960224,559.57145,193.24258)">
      <path
         inkscape:connector-curvature="0"
         id="path6522"
         d="M 462.03125,4.59375 C 329.93152,4.9469061 197.81453,4.3767802 65.71875,4.875 33.094096,7.2379094 4.5661095,36.803662 4.875,69.75 4.2839409,97.789994 4.998784,125.85353 4.7123322,153.90624 4.8678462,266.79906 4.2436353,379.71597 5.0625,492.59375 c 2.858348,32.75686 33.530731,60.90049 66.78125,59.5625 50.40906,0.39626 100.83341,-0.0285 151.25,0.12777 89.8303,-0.0583 179.68471,0.38694 269.5,-0.34652 32.75686,-2.85835 60.90049,-33.53073 59.5625,-66.78125 0.39626,-50.40906 -0.0285,-100.83341 0.12777,-151.25 -0.0583,-89.8303 0.38694,-179.68471 -0.34652,-269.5 -2.85835,-32.756859 -33.53073,-60.9004923 -66.78125,-59.5625 -7.705,-0.2820629 -15.41573,-0.3271396 -23.125,-0.25 z"
         style="fill:#f9f9f9;stroke:#000000;stroke-width:7;stroke-linecap:round;stroke-linejoin:round;stroke-miterlimit:4;stroke-dasharray:none;stroke-opacity:1" />
    </g>
    <path
       style="color:#000000;display:inline;overflow:visible;visibility:visible;fill:#ff724c;fill-opacity:1;stroke:#740000;stroke-width:2.48011208;stroke-miterlimit:4;stroke-dasharray:none;stroke-opacity:1;marker:none;enable-background:accumulate"
       d="m 616.87789,222.52215 c -14.34688,0.0555 -27.18082,12.26272 -27.9659,26.57354 -1.41218,14.50404 9.7298,28.58729 24.13537,30.61695 13.65342,2.46152 28.08965,-6.49194 31.99018,-19.72578 4.48035,-13.23723 -2.33354,-28.87261 -14.98325,-34.64604 -4.09986,-1.98772 -8.63985,-2.92257 -13.1764,-2.81867 z"
       id="path6526"
       inkscape:connector-curvature="0" />
    <path
       style="color:#000000;display:inline;overflow:visible;visibility:visible;fill:#ff724c;fill-opacity:1;stroke:#740000;stroke-width:2.48011208;stroke-miterlimit:4;stroke-dasharray:none;stroke-opacity:1;marker:none;enable-background:accumulate"
       d="m 776.723,222.52215 c -14.34688,0.0555 -27.18082,12.26272 -27.96589,26.57354 -1.41219,14.50404 9.7298,28.58729 24.13536,30.61695 13.65342,2.46152 28.08965,-6.49194 31.99019,-19.72578 4.48034,-13.23723 -2.33355,-28.87261 -14.98325,-34.64604 -4.09987,-1.98771 -8.63986,-2.92257 -13.17641,-2.81867 z"
       id="path6530"
       inkscape:connector-curvature="0" />
    <path
       style="color:#000000;display:inline;overflow:visible;visibility:visible;fill:#ff724c;fill-opacity:1;stroke:#740000;stroke-width:2.48011208;stroke-miterlimit:4;stroke-dasharray:none;stroke-opacity:1;marker:none;enable-background:accumulate"
       d="m 616.87789,382.93916 c -14.34688,0.0555 -27.18082,12.26272 -27.9659,26.57354 -1.41218,14.50404 9.7298,28.58729 24.13537,30.61694 13.65342,2.46153 28.08965,-6.49193 31.99018,-19.72577 4.48035,-13.23724 -2.33354,-28.87261 -14.98325,-34.64604 -4.09986,-1.98771 -8.63985,-2.92257 -13.1764,-2.81867 z"
       id="path6536"
       inkscape:connector-curvature="0" />
    <path
       style="color:#000000;display:inline;overflow:visible;visibility:visible;fill:#ff724c;fill-opacity:1;stroke:#740000;stroke-width:2.48011208;stroke-miterlimit:4;stroke-dasharray:none;stroke-opacity:1;marker:none;enable-background:accumulate"
       d="m 776.723,382.93916 c -14.34688,0.0555 -27.18082,12.26272 -27.96589,26.57354 -1.41219,14.50404 9.7298,28.58729 24.13536,30.61694 13.65342,2.46153 28.08965,-6.49193 31.99019,-19.72577 4.48034,-13.23724 -2.33355,-28.87261 -14.98325,-34.64604 -4.09987,-1.98771 -8.63986,-2.92257 -13.17641,-2.81867 z"
       id="path6538"
       inkscape:connector-curvature="0" />
  </g>
  <g
     inkscape:groupmode="layer"
     id="layer4"
     inkscape:label="text original"
     style="display:none">
    <flowRoot
       xml:space="preserve"
       id="flowRoot6593"
       style="font-style:normal;font-variant:normal;font-weight:bold;font-stretch:normal;font-size:156.25px;line-height:125%;font-family:'Century SchoolBook URW';-inkscape-font-specification:'Century SchoolBook URW, Bold';text-align:center;letter-spacing:0px;word-spacing:0px;writing-mode:lr-tb;text-anchor:middle;fill:url(#linearGradient6605);fill-opacity:1;stroke:url(#linearGradient6611);stroke-width:5;stroke-linecap:butt;stroke-linejoin:miter;stroke-miterlimit:4;stroke-dasharray:none;stroke-opacity:1"
       transform="translate(0,6.0339779)"><flowRegion
         id="flowRegion6595"
         style="fill:url(#linearGradient6605);fill-opacity:1;stroke:url(#linearGradient6611)"><rect
           id="rect6597"
           width="1024"
           height="188.91492"
           x="0"
           y="0"
           style="font-style:normal;font-variant:normal;font-weight:bold;font-stretch:normal;font-size:156.25px;line-height:125%;font-family:'Century SchoolBook URW';-inkscape-font-specification:'Century SchoolBook URW, Bold';text-align:center;writing-mode:lr-tb;text-anchor:middle;fill:url(#linearGradient6605);fill-opacity:1;stroke:url(#linearGradient6611);stroke-width:5;stroke-miterlimit:4;stroke-dasharray:none;stroke-opacity:1" /></flowRegion><flowPara
         id="flowPara6599"
         style="fill:url(#linearGradient6605);fill-opacity:1;stroke:url(#linearGradient6611);stroke-width:5;stroke-miterlimit:4;stroke-dasharray:none">DiceCast</flowPara></flowRoot>  </g>
  <g
     style="display:inline"
     inkscape:label="text shapes"
     id="g6710"
     inkscape:groupmode="layer">
    <g
       transform="translate(0,6.0339779)"
       style="font-style:normal;font-variant:normal;font-weight:bold;font-stretch:normal;font-size:156.25px;line-height:125%;font-family:'Century SchoolBook URW';-inkscape-font-specification:'Century SchoolBook URW, Bold';text-align:center;letter-spacing:0px;word-spacing:0px;writing-mode:lr-tb;text-anchor:middle;fill:url(#linearGradient6605);fill-opacity:1;stroke:url(#linearGradient6611);stroke-width:5;stroke-linecap:butt;stroke-linejoin:miter;stroke-miterlimit:4;stroke-dasharray:none;stroke-opacity:1"
       id="flowRoot6712">
      <path
         d="m 151.80957,142.54834 57.5,0 c 19.6875,0 32.1875,-2.8125 41.875,-9.6875 13.90625,-9.6875 21.5625,-26.5625 21.5625,-47.968751 0,-21.09375 -7.65625,-37.03125 -22.34375,-46.71875 -9.53125,-6.25 -20.9375,-8.4375 -42.96875,-8.4375 l -55.625,0 0,8.4375 2.34375,0 c 8.125,0 11.40625,0.625 12.8125,2.34375 1.09375,1.25 1.09375,1.875 1.09375,11.71875 l 0,67.812501 c 0,9.84375 0,10.46875 -1.09375,11.71875 -1.40625,1.71875 -4.6875,2.34375 -12.8125,2.34375 l -2.34375,0 0,8.4375 z m 53.75,-8.4375 c -7.65625,0 -9.375,-1.875 -9.375,-10.15625 l 0,-76.406251 c 0,-7.5 1.875,-9.375 9.375,-9.375 l 3.90625,0 c 21.71875,0 32.1875,15.15625 32.1875,46.40625 0,16.718751 -3.28125,31.875001 -8.28125,38.906251 -4.84375,6.5625 -14.0625,10.625 -24.53125,10.625 l -3.28125,0 z"
         style="fill:url(#linearGradient6605);fill-opacity:1;stroke:url(#linearGradient6611);stroke-width:5;stroke-miterlimit:4;stroke-dasharray:none"
         id="path6721" />
      <path
         style="fill:url(#linearGradient6605);fill-opacity:1;stroke:url(#linearGradient6611);stroke-width:5;stroke-miterlimit:4;stroke-dasharray:none"
         d="m 320.24463,68.642089 -36.71875,1.09375 0,7.96875 2.1875,0 c 9.53125,0 10,0.78125 10,14.6875 l 0,27.656251 c 0,11.25 0,11.25 -0.9375,12.5 -1.25,1.40625 -4.84375,2.03125 -10.625,2.03125 l -0.625,0 0,7.96875 48.90625,0 0,-7.96875 -0.9375,0 c -5.46875,0 -9.0625,-0.625 -10.3125,-2.03125 -0.9375,-1.25 -0.9375,-1.25 -0.9375,-12.5 l 0,-51.406251 z"
         id="path6739" />
      <path
         d="m 411.04785,114.89209 c -2.1875,5.78125 -3.59375,8.28125 -5.9375,11.40625 -3.75,5 -9.84375,7.96875 -16.40625,7.96875 -12.8125,0 -20,-10.9375 -20,-30.3125 0,-18.593751 6.875,-29.531251 18.59375,-29.531251 4.53125,0 8.125,1.875 8.125,4.375 0,0.46875 -0.15625,0.9375 -0.78125,1.71875 -4.0625,5.3125 -4.0625,5.46875 -4.0625,8.90625 0,6.71875 5.3125,11.406251 12.8125,11.406251 8.4375,0 13.90625,-5.156251 13.90625,-13.281251 0,-12.96875 -12.1875,-21.25 -31.09375,-21.25 -25.9375,0 -44.53125,16.875 -44.53125,40.468751 0,22.8125 16.875,38.125 42.03125,38.125 11.5625,0 19.21875,-3.125 26.09375,-10.625 4.53125,-4.6875 7.03125,-9.375 9.375,-16.71875 l -8.125,-2.65625 z"
         style="fill:url(#linearGradient6605);fill-opacity:1;stroke:url(#linearGradient6611);stroke-width:5;stroke-miterlimit:4;stroke-dasharray:none"
         id="path6725" />
      <path
         d="m 508.1792,106.92334 0,-2.5 c 0,-23.281251 -14.375,-38.125001 -37.34375,-38.125001 -12.65625,0 -22.96875,4.0625 -30.78125,12.03125 -7.03125,7.34375 -11.25,17.65625 -11.25,27.968751 0,11.25 4.84375,22.34375 12.65625,29.0625 7.1875,6.09375 17.65625,9.53125 29.53125,9.53125 18.28125,0 30.3125,-8.125 37.1875,-24.84375 l -7.65625,-3.125 c -6.25,12.1875 -13.125,17.34375 -23.4375,17.34375 -7.1875,0 -13.4375,-3.4375 -17.34375,-9.375 -2.65625,-4.21875 -3.75,-9.0625 -3.90625,-17.96875 l 52.34375,0 z m -52.1875,-8.593751 c 0,-14.84375 5.9375,-23.90625 15.3125,-23.90625 8.125,0 12.34375,6.5625 12.34375,18.90625 0,3.75 -0.9375,5 -4.21875,5 l -23.4375,0 z"
         style="fill:url(#linearGradient6605);fill-opacity:1;stroke:url(#linearGradient6611);stroke-width:5;stroke-miterlimit:4;stroke-dasharray:none"
         id="path6727" />
      <path
         d="m 622.58838,28.017089 -6.71875,0 -8.4375,7.65625 c -10.46875,-6.25 -17.34375,-8.28125 -28.59375,-8.28125 -17.65625,0 -32.03125,5.9375 -43.28125,17.96875 -10.625,11.25 -15.78125,25.15625 -15.78125,42.1875 0,16.250001 4.6875,29.062501 14.84375,40.156251 10.78125,11.875 23.90625,17.1875 42.34375,17.1875 27.65625,0 43.59375,-13.4375 49.53125,-41.40625 l -9.6875,-2.34375 c -4.21875,21.71875 -16.71875,34.0625 -34.6875,34.0625 -21.25,0 -31.25,-16.09375 -31.25,-50.468751 0,-32.5 10,-49.21875 29.21875,-49.21875 17.34375,0 28.75,12.03125 35.78125,38.125 l 8.28125,-0.9375 -1.5625,-44.6875 z"
         style="fill:url(#linearGradient6605);fill-opacity:1;stroke:url(#linearGradient6611);stroke-width:5;stroke-miterlimit:4;stroke-dasharray:none"
         id="path6729" />
      <path
         d="m 715.61084,92.860839 c 0,-10.15625 -1.875,-15 -7.34375,-19.375 -5.78125,-4.6875 -15.46875,-7.1875 -27.8125,-7.1875 -21.5625,0 -35.625,7.96875 -35.625,20.15625 0,6.71875 5.3125,11.71875 12.65625,11.71875 7.1875,0 12.8125,-4.375 12.8125,-10.15625 0,-1.875 -0.78125,-4.0625 -2.1875,-5.9375 -1.40625,-1.71875 -1.40625,-1.875 -1.40625,-2.65625 0,-2.65625 5.15625,-5 11.40625,-5 9.53125,0 12.96875,4.0625 12.96875,14.84375 l 0,8.125 c -2.34375,0.625 -4.21875,0.9375 -5.15625,1.09375 -15.78125,3.437501 -21.25,4.843751 -28.59375,7.812501 -11.5625,4.6875 -16.71875,10.9375 -16.71875,20.3125 0,11.5625 8.75,18.28125 24.0625,18.28125 13.4375,0 21.5625,-2.96875 29.84375,-11.09375 2.65625,7.03125 8.59375,11.09375 16.5625,11.09375 8.90625,0 17.1875,-6.25 17.1875,-12.96875 0,-1.5625 -0.78125,-2.5 -2.34375,-2.5 -0.9375,0 -1.875,0.3125 -3.125,1.09375 -1.40625,0.9375 -1.875,1.09375 -2.96875,1.09375 -3.4375,0 -4.21875,-2.03125 -4.21875,-11.25 l 0,-27.500001 z m -24.53125,12.968751 0,8.75 c 0,12.03125 -5.46875,19.6875 -14.375,19.6875 -6.09375,0 -10,-4.21875 -10,-10.78125 0,-8.4375 4.84375,-13.125 16.09375,-15.78125 l 8.28125,-1.875 z"
         style="fill:url(#linearGradient6605);fill-opacity:1;stroke:url(#linearGradient6611);stroke-width:5;stroke-miterlimit:4;stroke-dasharray:none"
         id="path6731" />
      <path
         d="m 799.09961,67.860839 -6.71875,0 -5.78125,3.4375 c -5.9375,-3.4375 -11.875,-5 -19.375,-5 -17.65625,0 -30.15625,10.625 -30.15625,25.3125 0,5.9375 2.1875,11.406251 6.5625,15.468751 4.6875,4.53125 9.21875,6.71875 19.375,8.90625 l 11.40625,2.5 c 7.8125,1.71875 10.9375,4.21875 10.9375,9.0625 0,5.625 -5.15625,9.21875 -13.4375,9.21875 -12.03125,0 -20.9375,-6.71875 -28.4375,-21.5625 l -7.03125,0 0.78125,27.03125 6.5625,0 6.09375,-2.8125 c 5.9375,3.4375 13.90625,5.46875 22.03125,5.46875 18.4375,0 31.40625,-10.9375 31.40625,-26.5625 0,-6.5625 -2.34375,-12.03125 -6.71875,-15.9375 -4.0625,-3.593751 -7.34375,-5.000001 -18.59375,-7.812501 l -14.0625,-3.4375 c -7.65625,-2.03125 -9.6875,-3.59375 -9.6875,-7.65625 0,-5.3125 5.3125,-9.0625 13.125,-9.0625 10,0 17.34375,5.3125 25,18.125 l 7.34375,0 -0.625,-24.6875 z"
         style="fill:url(#linearGradient6605);fill-opacity:1;stroke:url(#linearGradient6611);stroke-width:5;stroke-miterlimit:4;stroke-dasharray:none"
         id="path6733" />
      <path
         d="m 868.16211,68.642089 -20.3125,0 0,-30.9375 -9.84375,0 c -2.5,20 -10.9375,30.46875 -25.78125,32.1875 l 0,8.125 11.09375,0 0,37.343751 c 0,12.8125 0.625,16.5625 3.28125,20.9375 3.28125,5.46875 10,8.59375 18.90625,8.59375 8.90625,0 15.9375,-2.96875 20.15625,-8.4375 3.90625,-5.15625 6.25,-12.5 6.25,-19.375 0,-0.78125 0,-2.03125 -0.15625,-3.59375 l -8.28125,0 c 0.15625,11.71875 -3.4375,18.125 -9.84375,18.125 -4.53125,0 -5.78125,-2.8125 -5.78125,-13.4375 l 0,-40.156251 20.3125,0 0,-9.375 z"
         style="fill:url(#linearGradient6605);fill-opacity:1;stroke:url(#linearGradient6611);stroke-width:5;stroke-miterlimit:4;stroke-dasharray:none"
         id="path6735" />
    </g>
  </g>
  <g
     style="display:inline"
     inkscape:label="dot on the i"
     id="g6618"
     inkscape:groupmode="layer">
    <path
       inkscape:connector-curvature="0"
       id="path6643"
       d="m 307.58838,33.426067 c -7.65625,0 -13.90625,6.25 -13.90625,13.75 0,7.65625 6.25,13.90625 13.59375,13.90625 7.8125,0 14.0625,-6.09375 14.0625,-13.90625 0,-7.65625 -6.25,-13.75 -13.75,-13.75 z"
       style="font-style:normal;font-variant:normal;font-weight:bold;font-stretch:normal;font-size:medium;line-height:125%;font-family:'Century SchoolBook URW';-inkscape-font-specification:'Century SchoolBook URW, Bold';text-align:center;letter-spacing:0px;word-spacing:0px;writing-mode:lr-tb;text-anchor:middle;fill:url(#linearGradient6628);fill-opacity:1;stroke:url(#linearGradient6634);stroke-width:2.7;stroke-linecap:butt;stroke-linejoin:miter;stroke-miterlimit:4;stroke-dasharray:none;stroke-opacity:1" />
  </g>
</svg>
